<svg width="835" height="300" xmlns="http://www.w3.org/2000/svg">
 <defs>
  <linearGradient id="svg_5" y2="0.5" x2="1" y1="0.5" x1="0">
   <stop stop-color="#000000" offset="0%"/>
   <stop stop-color="#000000" offset="100%"/>
  </linearGradient>
  <linearGradient id="svg_7" y2="0.5" x2="1" y1="0.5" x1="0">
   <stop stop-color="#000000" offset="0%"/>
   <stop stop-color="#000000" offset="100%"/>
  </linearGradient>
  <linearGradient id="svg_9" y2="0.5" x2="1" y1="0.5" x1="0">
   <stop stop-color="#000000" offset="0%"/>
   <stop stop-color="#000000" offset="100%"/>
  </linearGradient>
  <linearGradient id="svg_11" y2="0.5" x2="1" y1="0.5" x1="0">
   <stop stop-color="#000000" offset="0%"/>
   <stop stop-color="#000000" offset="100%"/>
  </linearGradient>
  <linearGradient id="svg_13" y2="0.5" x2="1" y1="0.5" x1="0">
   <stop stop-color="#ec4c4c" offset="0%"/>
   <stop stop-color="#ec4c4c" offset="100%"/>
  </linearGradient>
 </defs>
 <g>
  <title>background</title>
  <rect fill="none" id="canvas_background" height="302" width="837" y="-1" x="-1"/>
 </g>
 <g>
  <title>Layer 1</title>
  <g id="svg_6" transform="matrix(5.3278, 0, 0, 5.3278, 514.441, 68.1563)">
   <svg y="-3.753896" x="-54.619171" id="svg_21" viewBox="19.12,30.851,61.75699999999999,51.06099999999999" height="51.061" width="61.757">

    <path id="svg_22" d="m57.006001,35.851002l-9.179001,31.849995l-6.554001,-17.038998l-17.152998,0c0.602999,0.825001 1.264,1.629002 2.025999,2.391003c8.282001,8.281998 21.533001,21.538002 23.852001,23.859001c2.320999,-2.32 15.57,-15.577003 23.852997,-23.859001c0.762001,-0.762001 1.423004,-1.566002 2.026001,-2.391003l-13.239998,0l-5.631001,-14.810997z" fill="url(#svg_5)"/>
   </svg>
  </g>
  <g id="svg_8" transform="matrix(5.3278, 0, 0, 5.3278, 410.436, 141.241)">
   <svg y="-3.753896" x="-54.619171" id="svg_23" viewBox="-0.16500000000000004,44.537,29.285,11.124000000000002" height="11.124" width="29.285">

    <path id="svg_24" fill="url(#svg_7)" d="m4.835,49.536999l0,1.124001l19.285001,0c-0.27,-0.369999 -0.524,-0.743999 -0.763,-1.124001l-18.522,0z"/>
   </svg>
  </g>
  <g id="svg_10" transform="matrix(5.3278, 0, 0, 5.3278, 788.95, 141.241)">
   <svg y="-3.753896" x="-54.619171" id="svg_25" viewBox="70.878,44.537,29.287999999999997,11.124000000000002" height="11.124" width="29.288">

    <path id="svg_26" fill="url(#svg_9)" d="m95.165001,49.536999l-18.524002,0c-0.238998,0.380001 -0.492996,0.755001 -0.763,1.124001l19.288002,0l0,-1.124001l-0.000999,0z"/>
   </svg>
  </g>
  <g id="svg_12" transform="matrix(5.3278, 0, 0, 5.3278, 495.796, 0.2183)">
   <svg y="-3.753896" x="-54.806866" id="svg_27" viewBox="15.587758988179313,18.088938456654965,68.82248202364137,51.08206154334503" height="51.082062" width="68.822482">

    <path id="svg_28" fill="url(#svg_11)" d="m74.366997,28.104c-6.746994,-6.712 -17.656998,-6.683001 -24.367996,0.065001c-6.711002,-6.748001 -17.621002,-6.777 -24.368,-0.065001c-5.744001,5.713001 -6.692001,14.396 -2.274,21.432999l18.687998,0l5.628002,14.633999l9.186001,-31.870998l6.552998,17.237l13.229,0c4.417999,-7.036999 3.470001,-15.719997 -2.274002,-21.432999z"/>
   </svg>
  </g>
  <g id="svg_14" transform="matrix(2.7273, 0, 0, 2.7273, 641.768, 51.6555)">
   <svg y="-7.33326" x="-106.698944" id="svg_29" viewBox="8.446000000000016,0,83.104,100.00057852449916" height="100.000579" width="83.104">

    <path id="svg_30" fill="url(#svg_13)" d="m85.913002,91.835999c-0.603004,-0.455002 -2.714005,-0.406998 -4.809006,-0.965996c-2.094994,-0.559006 -2.189995,-1.286003 -3.491997,-1.220001c-0.056,0.002998 -0.153,0.006996 -0.278999,0.013c-0.952003,-1.818001 -6.250999,-19.593002 -6.250999,-19.593002c0.059998,-0.622002 0.183998,-1.170998 0.172997,-1.635002c-0.034996,-1.391998 -0.266998,-1.260994 -1.348,-3.147995c0,0 -2.017998,-9.962002 -8.379997,-13.872002c0,0 1.054001,-12.718002 0.773998,-14.968002c-0.034,-0.277 -0.076,-0.549999 -0.120998,-0.819l7.044998,-3.105c0,0 1.449005,0.826 2.054001,0.714001c0.604004,-0.112 0.807999,-1.132999 1.043999,-1.719c0.236,-0.587 0.207001,-2.698 -1.331001,-2.279999c-1.537994,0.417999 -9.026997,2.452999 -9.026997,2.452999l-0.007999,-0.072001l-0.060001,-0.553999c2.604,-1.616001 2.960003,-2.841 1.989002,-5.125c-0.674,-1.584 -2.858002,-4.141001 -2.858002,-4.141001l0,-1.803999c0,-1.204 -0.749001,-2.237001 -1.778999,-2.703001l-0.013,-0.025999c0.900002,0.165998 2.925999,0.059999 3.23,-1.725c0.188,-0.041 0.324001,-0.169001 0.324001,-0.323c0,-0.128 -0.097,-0.238001 -0.237,-0.295c0.018997,-0.084001 0.041,-0.176001 0.064999,-0.272c0.222,-0.02 0.395,-0.161 0.395,-0.333c0,-0.13 -0.098,-0.241 -0.241001,-0.297c0.041,-0.191 0.069,-0.361 0.063,-0.473c-0.018997,-0.366 0.889,-0.167001 0.669003,-0.633c-0.366001,-0.773 -0.621002,-2.362 -0.621002,-2.393c-0.003998,-3.049 -2.478001,-5.522 -5.528999,-5.522c-2.052002,0 -3.839001,1.121 -4.792,2.782c-0.362,-0.388 -0.878002,-0.632 -1.451,-0.632c-0.647999,0 -1.222,0.312 -1.584999,0.792c-0.271999,-0.216 -0.566002,-0.39 -0.860001,-0.499c-1.479,-0.548 -3.456001,0.071 -4.004002,1.551001c-0.285,0.768 -0.730999,3.825 -1.518997,5.681c-0.566002,1.332 -1.735001,1.631 -1.735001,1.631s1.476997,1.122 2.604,0.724001c2.339001,-0.824001 2.133999,-2.788001 6.34,-5.915001c0.041,-0.031 0.078999,-0.063 0.114998,-0.097c0.202,0.069 0.417999,0.109 0.643002,0.109c0.262001,0 0.510998,-0.052 0.739998,-0.144c0.163002,1.988 1.380001,3.673 3.091003,4.505l-0.611,1.046c-0.120003,0.007999 -2.488003,1.267 -2.488003,1.267c-5.483997,1.358 -13.409,8.667999 -14.193001,9.132999c-0.782997,0.465 -2.963997,1.167 -0.983997,4.459c0,0 0.467999,2.840002 3.488998,10.855001c-0.096001,0.084999 -1.221001,2.785 1.063,5.235001c0.759003,0.813999 2.440002,-0.018002 2.889999,-0.334003c0.450001,-0.315998 0.675003,-1.850998 0,-2.882999c-0.674999,-1.032997 -1.362999,-1.455997 -1.918999,-2.82s-0.715,-9.556 -1.873001,-11.872c0,0 7.082001,-1.906 7.912003,-3.573999c0,0 5.264,11.749001 5.278,11.848999c-1.306999,0.959 -5.257999,6.051003 -5.964001,7.368c-0.913002,1.705002 -1.275002,3.516003 -1.139999,5.139c0,0 -1.521,1.500999 -4.027,14.778004c0,0 -1.080002,-2.260002 -3.478001,-4.159004c-2.397999,-1.898998 -12.351999,-6.368 -12.384001,-6.431l0.365002,-0.219997c0,0 0.809,-3.007999 -2.566,-4.116001c0,0 -6.042002,3.002998 -7.708,4.022999c-1.667001,1.02 -3.157001,4.221001 -3.157001,4.221001s0.311,0.478001 1.059999,0.578999c0.749001,0.101002 2.564,-0.976997 4.664001,-1.517998c2.1,-0.541 2.539,0.045998 3.641001,-0.650002c1.101999,-0.696999 17.528,12.756004 17.528,12.756004s1.849998,2.604996 3.496998,2.538994c2.653,-0.105995 3.117001,-1.391998 3.117001,-1.391998s6.234001,-5.428001 7.142002,-11.958l12.435997,12.156998c0,0 -0.944,1.946007 0.393005,5.322006c1.337997,3.375 6.434998,13.556999 6.434998,13.556999l0,0c-0.070999,0.004997 -0.112,0.008995 -0.112,0.012001l-0.426003,0.013c0,0 -2.18,2.223999 0.217003,4.845993c0,0 6.737999,0.347 8.689995,0.276001c1.953003,-0.070999 4.822006,-2.128998 4.822006,-2.128998s-0.034004,-0.57 -0.637001,-1.026001z"/>
   </svg>
  </g>
  <text transform="matrix(5.2505, 0, 0, 4.33489, -3929.47, -1253.75)" xml:space="preserve" text-anchor="start" font-family="Georgia, Times, 'Times New Roman', serif" font-size="25" id="svg_31" y="342.998347" x="748.652181" stroke-width="0" stroke="#000" fill="#000000">JOG</text>
  <text transform="matrix(4.88501, 0, 0, 4.22855, -4350.79, -812.054)" xml:space="preserve" text-anchor="start" font-family="Georgia, Times, 'Times New Roman', serif" font-size="25" id="svg_32" y="246.307988" x="997.584649" fill-opacity="null" stroke-opacity="null" stroke-width="0" stroke="#000" fill="#000000">INFO</text>
  <rect id="svg_33" height="1" width="1" y="-136.550003" x="774" fill-opacity="null" stroke-opacity="null" stroke-width="0" stroke="#000" fill="#000000"/>
 </g>
</svg>